<mxfile host="Electron" agent="Mozilla/5.0 (Windows NT 10.0; Win64; x64) AppleWebKit/537.36 (KHTML, like Gecko) draw.io/24.7.8 Chrome/128.0.6613.36 Electron/32.0.1 Safari/537.36" version="24.7.8">
  <diagram name="Страница — 1" id="BF4X39aQeY8KcTRAFGeo">
    <mxGraphModel dx="1313" dy="776" grid="1" gridSize="10" guides="1" tooltips="1" connect="1" arrows="1" fold="1" page="1" pageScale="1" pageWidth="1169" pageHeight="827" math="0" shadow="0">
      <root>
        <mxCell id="0" />
        <mxCell id="1" parent="0" />
        <mxCell id="C4JD46LGUiMj1O0Nzzzd-1" value="Преподаватель" style="swimlane;whiteSpace=wrap;html=1;" vertex="1" parent="1">
          <mxGeometry x="240" y="20" width="200" height="530" as="geometry" />
        </mxCell>
        <mxCell id="C4JD46LGUiMj1O0Nzzzd-6" value="Выдача вариантов&lt;div&gt;лабораторной работы&lt;/div&gt;" style="rounded=1;whiteSpace=wrap;html=1;" vertex="1" parent="C4JD46LGUiMj1O0Nzzzd-1">
          <mxGeometry x="40" y="35" width="120" height="60" as="geometry" />
        </mxCell>
        <mxCell id="C4JD46LGUiMj1O0Nzzzd-20" value="Проверка знаний и правильности выполнения работы" style="rounded=1;whiteSpace=wrap;html=1;" vertex="1" parent="C4JD46LGUiMj1O0Nzzzd-1">
          <mxGeometry x="40" y="330" width="120" height="60" as="geometry" />
        </mxCell>
        <mxCell id="C4JD46LGUiMj1O0Nzzzd-22" value="Выставление баллов" style="rounded=1;whiteSpace=wrap;html=1;" vertex="1" parent="C4JD46LGUiMj1O0Nzzzd-1">
          <mxGeometry x="40" y="440" width="120" height="60" as="geometry" />
        </mxCell>
        <mxCell id="C4JD46LGUiMj1O0Nzzzd-21" value="" style="endArrow=classic;html=1;rounded=0;exitX=0.5;exitY=1;exitDx=0;exitDy=0;" edge="1" parent="C4JD46LGUiMj1O0Nzzzd-1" source="C4JD46LGUiMj1O0Nzzzd-20" target="C4JD46LGUiMj1O0Nzzzd-22">
          <mxGeometry width="50" height="50" relative="1" as="geometry">
            <mxPoint x="220" y="380" as="sourcePoint" />
            <mxPoint x="100" y="430" as="targetPoint" />
          </mxGeometry>
        </mxCell>
        <mxCell id="C4JD46LGUiMj1O0Nzzzd-2" value="Студент" style="swimlane;whiteSpace=wrap;html=1;" vertex="1" parent="1">
          <mxGeometry x="440" y="20" width="200" height="530" as="geometry" />
        </mxCell>
        <mxCell id="C4JD46LGUiMj1O0Nzzzd-8" value="Изучение данных" style="rounded=1;whiteSpace=wrap;html=1;" vertex="1" parent="C4JD46LGUiMj1O0Nzzzd-2">
          <mxGeometry x="40" y="35" width="120" height="60" as="geometry" />
        </mxCell>
        <mxCell id="C4JD46LGUiMj1O0Nzzzd-10" value="Изучение теории" style="rounded=1;whiteSpace=wrap;html=1;" vertex="1" parent="C4JD46LGUiMj1O0Nzzzd-2">
          <mxGeometry x="40" y="140" width="120" height="60" as="geometry" />
        </mxCell>
        <mxCell id="C4JD46LGUiMj1O0Nzzzd-9" value="" style="endArrow=classic;html=1;rounded=0;exitX=0.5;exitY=1;exitDx=0;exitDy=0;" edge="1" parent="C4JD46LGUiMj1O0Nzzzd-2" source="C4JD46LGUiMj1O0Nzzzd-8" target="C4JD46LGUiMj1O0Nzzzd-10">
          <mxGeometry width="50" height="50" relative="1" as="geometry">
            <mxPoint x="-30" y="150" as="sourcePoint" />
            <mxPoint x="100" y="140" as="targetPoint" />
          </mxGeometry>
        </mxCell>
        <mxCell id="C4JD46LGUiMj1O0Nzzzd-12" value="Написание кода" style="rounded=1;whiteSpace=wrap;html=1;" vertex="1" parent="C4JD46LGUiMj1O0Nzzzd-2">
          <mxGeometry x="40" y="235" width="120" height="60" as="geometry" />
        </mxCell>
        <mxCell id="C4JD46LGUiMj1O0Nzzzd-11" value="" style="endArrow=classic;html=1;rounded=0;exitX=0.5;exitY=1;exitDx=0;exitDy=0;" edge="1" parent="C4JD46LGUiMj1O0Nzzzd-2" source="C4JD46LGUiMj1O0Nzzzd-10" target="C4JD46LGUiMj1O0Nzzzd-12">
          <mxGeometry width="50" height="50" relative="1" as="geometry">
            <mxPoint x="50" y="330" as="sourcePoint" />
            <mxPoint x="100" y="280" as="targetPoint" />
          </mxGeometry>
        </mxCell>
        <mxCell id="C4JD46LGUiMj1O0Nzzzd-18" value="Написание отчета по работе" style="rounded=1;whiteSpace=wrap;html=1;" vertex="1" parent="C4JD46LGUiMj1O0Nzzzd-2">
          <mxGeometry x="40" y="330" width="120" height="60" as="geometry" />
        </mxCell>
        <mxCell id="C4JD46LGUiMj1O0Nzzzd-3" value="Язык программирования Python" style="swimlane;whiteSpace=wrap;html=1;" vertex="1" parent="1">
          <mxGeometry x="650" y="20" width="220" height="530" as="geometry" />
        </mxCell>
        <mxCell id="C4JD46LGUiMj1O0Nzzzd-14" value="Выполение кода" style="rounded=1;whiteSpace=wrap;html=1;" vertex="1" parent="C4JD46LGUiMj1O0Nzzzd-3">
          <mxGeometry x="50" y="235" width="120" height="60" as="geometry" />
        </mxCell>
        <mxCell id="C4JD46LGUiMj1O0Nzzzd-16" value="Вывод результатов" style="rounded=1;whiteSpace=wrap;html=1;" vertex="1" parent="C4JD46LGUiMj1O0Nzzzd-3">
          <mxGeometry x="50" y="330" width="120" height="60" as="geometry" />
        </mxCell>
        <mxCell id="C4JD46LGUiMj1O0Nzzzd-15" value="" style="endArrow=classic;html=1;rounded=0;exitX=0.5;exitY=1;exitDx=0;exitDy=0;" edge="1" parent="C4JD46LGUiMj1O0Nzzzd-3" source="C4JD46LGUiMj1O0Nzzzd-14" target="C4JD46LGUiMj1O0Nzzzd-16">
          <mxGeometry width="50" height="50" relative="1" as="geometry">
            <mxPoint x="-90" y="400" as="sourcePoint" />
            <mxPoint x="110" y="330" as="targetPoint" />
          </mxGeometry>
        </mxCell>
        <mxCell id="C4JD46LGUiMj1O0Nzzzd-4" value="" style="ellipse;html=1;shape=startState;fillColor=#000000;strokeColor=#ff0000;" vertex="1" parent="1">
          <mxGeometry x="100" y="70" width="30" height="30" as="geometry" />
        </mxCell>
        <mxCell id="C4JD46LGUiMj1O0Nzzzd-5" value="" style="edgeStyle=orthogonalEdgeStyle;html=1;verticalAlign=bottom;endArrow=open;endSize=8;strokeColor=#ff0000;rounded=0;entryX=0;entryY=0.5;entryDx=0;entryDy=0;" edge="1" source="C4JD46LGUiMj1O0Nzzzd-4" parent="1" target="C4JD46LGUiMj1O0Nzzzd-6">
          <mxGeometry relative="1" as="geometry">
            <mxPoint x="260" y="85" as="targetPoint" />
          </mxGeometry>
        </mxCell>
        <mxCell id="C4JD46LGUiMj1O0Nzzzd-7" value="" style="endArrow=classic;html=1;rounded=0;exitX=1;exitY=0.5;exitDx=0;exitDy=0;" edge="1" parent="1" source="C4JD46LGUiMj1O0Nzzzd-6" target="C4JD46LGUiMj1O0Nzzzd-8">
          <mxGeometry width="50" height="50" relative="1" as="geometry">
            <mxPoint x="410" y="100" as="sourcePoint" />
            <mxPoint x="480" y="85" as="targetPoint" />
          </mxGeometry>
        </mxCell>
        <mxCell id="C4JD46LGUiMj1O0Nzzzd-13" value="" style="endArrow=classic;html=1;rounded=0;exitX=1;exitY=0.5;exitDx=0;exitDy=0;" edge="1" parent="1" source="C4JD46LGUiMj1O0Nzzzd-12" target="C4JD46LGUiMj1O0Nzzzd-14">
          <mxGeometry width="50" height="50" relative="1" as="geometry">
            <mxPoint x="560" y="350" as="sourcePoint" />
            <mxPoint x="710" y="285" as="targetPoint" />
          </mxGeometry>
        </mxCell>
        <mxCell id="C4JD46LGUiMj1O0Nzzzd-17" value="" style="endArrow=classic;html=1;rounded=0;exitX=0;exitY=0.5;exitDx=0;exitDy=0;" edge="1" parent="1" source="C4JD46LGUiMj1O0Nzzzd-16" target="C4JD46LGUiMj1O0Nzzzd-18">
          <mxGeometry width="50" height="50" relative="1" as="geometry">
            <mxPoint x="640" y="480" as="sourcePoint" />
            <mxPoint x="600" y="380" as="targetPoint" />
          </mxGeometry>
        </mxCell>
        <mxCell id="C4JD46LGUiMj1O0Nzzzd-19" value="" style="endArrow=classic;html=1;rounded=0;exitX=0;exitY=0.5;exitDx=0;exitDy=0;" edge="1" parent="1" source="C4JD46LGUiMj1O0Nzzzd-18" target="C4JD46LGUiMj1O0Nzzzd-20">
          <mxGeometry width="50" height="50" relative="1" as="geometry">
            <mxPoint x="460" y="380" as="sourcePoint" />
            <mxPoint x="400" y="380" as="targetPoint" />
          </mxGeometry>
        </mxCell>
        <mxCell id="C4JD46LGUiMj1O0Nzzzd-23" value="" style="endArrow=classic;html=1;rounded=0;exitX=0.5;exitY=1;exitDx=0;exitDy=0;" edge="1" parent="1" source="C4JD46LGUiMj1O0Nzzzd-22" target="C4JD46LGUiMj1O0Nzzzd-24">
          <mxGeometry width="50" height="50" relative="1" as="geometry">
            <mxPoint x="460" y="560" as="sourcePoint" />
            <mxPoint x="340" y="600" as="targetPoint" />
          </mxGeometry>
        </mxCell>
        <mxCell id="C4JD46LGUiMj1O0Nzzzd-24" value="" style="ellipse;html=1;shape=endState;fillColor=#000000;strokeColor=#ff0000;" vertex="1" parent="1">
          <mxGeometry x="325" y="610" width="30" height="30" as="geometry" />
        </mxCell>
      </root>
    </mxGraphModel>
  </diagram>
</mxfile>
